<svg xmlns="http://www.w3.org/2000/svg" width="500" height="500" viewBox="0 0 500 500"><g transform="matrix(4.94 0 0 4.94 247.53 247.51)"><filter id="a" y="-21%" height="142%" x="-21%" width="142%"><feGaussianBlur in="SourceAlpha"/><feOffset dx="1" dy="1" result="oBlur"/><feFlood flood-color="#656765" flood-opacity="1"/><feComposite in2="oBlur" operator="in"/><feMerge><feMergeNode/><feMergeNode in="SourceGraphic"/></feMerge></filter><path vector-effect="non-scaling-stroke" d="M0-50c27.6 0 50 22.4 50 50S27.6 50 0 50-50 27.6-50 0s22.4-50 50-50z" fill="#f0f8ff" filter="url(#a)"/></g><g transform="matrix(1.21 0 0 1.21 247.53 166.35)"><filter id="b" y="-21%" height="142%" x="-22%" width="144%"><feGaussianBlur in="SourceAlpha"/><feOffset dx="3" dy="3" result="oBlur"/><feFlood flood-color="#656765" flood-opacity=".5"/><feComposite in2="oBlur" operator="in"/><feMerge><feMergeNode/><feMergeNode in="SourceGraphic"/></feMerge></filter><path vector-effect="non-scaling-stroke" transform="translate(-187.41 -120.57)" d="M187.406 241.043c36.887 0 66.875-30.04 66.875-66.93V67.031c0-36.89-29.988-66.926-66.875-66.926-36.886 0-66.875 30.036-66.875 66.926v107.082c0 36.89 29.989 66.93 66.875 66.93zM147.281 67.031c0-22.14 18.004-40.156 40.125-40.156s40.125 18.016 40.125 40.156v107.082c0 22.14-18.004 40.157-40.125 40.157-22.12 0-40.125-18.016-40.125-40.157zm0 0" fill="#aad6ec" filter="url(#b)"/></g><g transform="matrix(1.21 0 0 1.21 247.53 312.47)" clip-path="url(#c)"><filter id="d" y="-21%" height="142%" x="-21%" width="142%"><feGaussianBlur in="SourceAlpha"/><feOffset dx="3" dy="3" result="oBlur"/><feFlood flood-color="#656765" flood-opacity=".5"/><feComposite in2="oBlur" operator="in"/><feMerge><feMergeNode/><feMergeNode in="SourceGraphic"/></feMerge></filter><clipPath id="c"><path transform="translate(-187.41 -241.04)" d="M67.031 107h240.75v268H67.031zm0 0" stroke-linecap="round"/></clipPath><path vector-effect="non-scaling-stroke" transform="translate(-187.41 -241.04)" d="M294.406 107.188a13.312 13.312 0 00-5.117 1.019 13.27 13.27 0 00-4.34 2.902 13.36 13.36 0 00-3.66 6.852 13.351 13.351 0 00-.258 2.613v53.54c0 51.667-41.996 93.698-93.625 93.698s-93.625-42.03-93.625-93.699v-53.539a13.351 13.351 0 00-1.02-5.125 13.27 13.27 0 00-2.898-4.34 13.27 13.27 0 00-4.34-2.902 13.365 13.365 0 00-17.472 7.242 13.403 13.403 0 00-1.02 5.125v53.54c0 61.843 46.973 112.359 107 119.105v54.906h-40.125a13.312 13.312 0 00-5.117 1.02 13.27 13.27 0 00-4.34 2.902 13.36 13.36 0 00-3.66 6.851 13.351 13.351 0 00.762 7.735 13.39 13.39 0 004.926 6.008c.73.488 1.5.898 2.312 1.234.809.34 1.649.594 2.508.762.863.172 1.73.258 2.61.258h107c.878 0 1.745-.086 2.609-.258a12.79 12.79 0 002.507-.762 13.27 13.27 0 004.34-2.898 13.39 13.39 0 003.66-6.856 13.312 13.312 0 000-5.223 13.403 13.403 0 00-5.687-8.52 13.27 13.27 0 00-2.313-1.233 13.365 13.365 0 00-5.117-1.02h-40.125v-54.906c60.028-6.746 107-57.262 107-119.106v-53.539a13.351 13.351 0 00-1.02-5.125 13.27 13.27 0 00-2.898-4.34 13.27 13.27 0 00-4.34-2.902 13.365 13.365 0 00-5.117-1.02zm0 0" fill="#aad6ec" filter="url(#d)"/></g><path vector-effect="non-scaling-stroke" d="M144.04 223.033c0-25.363 20.623-45.923 46.064-45.923h114.872c25.44 0 46.064 20.56 46.064 45.923v48.154c0 25.363-20.623 45.923-46.064 45.923H190.104c-25.44 0-46.064-20.56-46.064-45.923z" fill="#fcfaf2"/><path vector-effect="non-scaling-stroke" d="M146.944 186.354c2.937-3.974 7.407-6.76 12.61-7.413 11.817-1.474 31.533-3.94 49.224-6.146a313.21 313.21 0 0177.51 0c17.692 2.207 37.407 4.672 49.224 6.146 5.204.653 9.675 3.439 12.614 7.413h30.795c22.101 0 40.039 17.92 40.039 40.02 0 22.807-12.49 43.787-32.51 54.712l-34.96 19.053c-1.038 8.234-7.529 14.883-15.978 15.932-11.816 1.48-31.531 3.938-49.224 6.153a312.863 312.863 0 01-77.51 0c-17.691-2.215-37.407-4.672-49.223-6.153-8.449-1.05-14.94-7.698-15.978-15.931l-34.96-19.054c-20.02-10.925-32.51-31.906-32.51-54.712 0-22.1 17.937-40.02 40.043-40.02zm192.425 98.663l-53.08 6.63a313.21 313.21 0 01-77.51 0l-53.08-6.63v12.848c0 3.084 2.325 5.689 5.387 6.066 11.816 1.481 31.532 3.946 49.223 6.152a300.049 300.049 0 0074.448 0c17.692-2.206 37.408-4.671 49.224-6.152 3.062-.377 5.388-2.982 5.388-6.066zm-195.914-86.432h-27.306c-15.37 0-27.797 12.442-27.797 27.79 0 18.328 10.041 35.194 26.145 43.97l28.958 15.787zm208.16 0v87.547l28.96-15.787c16.1-8.776 26.14-25.642 26.14-43.97 0-15.349-12.427-27.79-27.794-27.79zM155.7 254.018v18.67l54.611 6.82a300.395 300.395 0 0074.447 0l54.612-6.82v-18.67l-72.365 4.517a312.818 312.818 0 01-38.938 0zm183.669-12.255v-18.716H155.7v18.716l73.1 4.567c12.488.777 24.98.777 37.47 0zm0-30.946v-13.671c0-3.08-2.325-5.681-5.387-6.066-11.816-1.48-31.531-3.938-49.224-6.153a301.09 301.09 0 00-74.448 0c-17.691 2.215-37.407 4.672-49.223 6.153-3.062.385-5.387 2.987-5.387 6.067v13.67zm0 0" fill="#5b5b5b" fill-rule="evenodd"/></svg>
