<?xml version="1.0" encoding="UTF-8" standalone="no" ?>
<!DOCTYPE svg PUBLIC "-//W3C//DTD SVG 1.1//EN" "http://www.w3.org/Graphics/SVG/1.1/DTD/svg11.dtd">
<svg xmlns="http://www.w3.org/2000/svg" xmlns:xlink="http://www.w3.org/1999/xlink" version="1.1" width="500" height="500" viewBox="0 0 500 500" xml:space="preserve">
<desc>Created with Fabric.js 4.6.0</desc>
<defs>
</defs>
<g transform="matrix(0.91 0 0 0.91 240 260)" id="5rz-WoGqYVeya6Zx2JiGk"  >
<filter id="SVGID_0" y="-21%" height="142%" x="-21%" width="142%" >
	<feGaussianBlur in="SourceAlpha" stdDeviation="0"></feGaussianBlur>
	<feOffset dx="4" dy="4" result="oBlur" ></feOffset>
	<feFlood flood-color="rgb(170,214,236)" flood-opacity="1"/>
	<feComposite in2="oBlur" operator="in" />
	<feMerge>
		<feMergeNode></feMergeNode>
		<feMergeNode in="SourceGraphic"></feMergeNode>
	</feMerge>
</filter>
<path style="stroke: none; stroke-width: 1; stroke-dasharray: none; stroke-linecap: butt; stroke-dashoffset: 0; stroke-linejoin: miter; stroke-miterlimit: 4; fill: rgb(240,248,255); fill-rule: nonzero; opacity: 1;filter: url(#SVGID_0);" vector-effect="non-scaling-stroke"  transform=" translate(-256, -256)" d="M 512 256 C 512 397.4 397.4 512 256 512 C 114.6 512 0 397.4 0 256 C 0 114.6 114.6 0 256 0 C 397.4 0 512 114.6 512 256 z" stroke-linecap="round" />
</g>
<g transform="matrix(0.73 0 0 0.73 240 260)" id="D8kmGWMlAxdIXw4BPhD0d"  >
<filter id="SVGID_1" y="-21%" height="142%" x="-21%" width="142%" >
	<feGaussianBlur in="SourceAlpha" stdDeviation="0"></feGaussianBlur>
	<feOffset dx="4" dy="4" result="oBlur" ></feOffset>
	<feFlood flood-color="rgb(101,103,101)" flood-opacity="1"/>
	<feComposite in2="oBlur" operator="in" />
	<feMerge>
		<feMergeNode></feMergeNode>
		<feMergeNode in="SourceGraphic"></feMergeNode>
	</feMerge>
</filter>
<path style="stroke: none; stroke-width: 1; stroke-dasharray: none; stroke-linecap: butt; stroke-dashoffset: 0; stroke-linejoin: miter; stroke-miterlimit: 4; fill: rgb(170,214,236); fill-rule: nonzero; opacity: 1;filter: url(#SVGID_1);" vector-effect="non-scaling-stroke"  transform=" translate(0, 0)" d="M 0 96 C 53.03 96 96 53.03 96 0 L 96 -160 C 96 -213.03 53.03 -256 0 -256 C -53.03 -256 -96 -213.03 -96 -160 L -96 0 C -96 53 -53.9 96 0 96 z M 152 -64 C 138.7 -64 128 -53.3 128 -40.9 L 128 0 C 128 73.33 66.03 132.4 -8.300000000000011 127.7 C -74.38000000000001 123.531 -128 61.11 -128 -5.1000000000000085 L -128 -40.900000000000006 C -128 -53.300000000000004 -138.75 -64 -152 -64 C -165.25 -64 -176 -53.3 -176 -40.9 L -176 -8.75 C -176 80.91 -112.03 160.85 -24 172.95 L -24 208 L -64 208 C -82.19 208 -96.84 223.18 -95.96000000000001 241.57 C -95.57000000000001 249.79999999999998 -88.2 256 -80 256 L 80 256 C 88.222 256 95.57 249.784 95.96000000000001 241.57 C 96.80000000000001 223.2 82.2 208 64 208 L 24 208 L 24 174.23 C 109.7 162.5 176 88.89999999999999 176 0 L 176 -40.9 C 176 -53.3 165.3 -64 152 -64 z" stroke-linecap="round" />
</g>
</svg>