<svg xmlns="http://www.w3.org/2000/svg" width="500" height="500" viewBox="0 0 500 500"><g transform="matrix(4.94 0 0 4.94 247.53 247.51)"><filter id="a" y="-21%" height="142%" x="-21%" width="142%"><feGaussianBlur in="SourceAlpha"/><feOffset dx="1" dy="1" result="oBlur"/><feFlood flood-color="#656765" flood-opacity="1"/><feComposite in2="oBlur" operator="in"/><feMerge><feMergeNode/><feMergeNode in="SourceGraphic"/></feMerge></filter><path vector-effect="non-scaling-stroke" d="M0-50c27.6 0 50 22.4 50 50S27.6 50 0 50-50 27.6-50 0s22.4-50 50-50z" fill="#f0f8ff" filter="url(#a)"/></g><g transform="matrix(1.21 0 0 1.21 247.53 166.35)"><filter id="b" y="-21%" height="142%" x="-22%" width="144%"><feGaussianBlur in="SourceAlpha"/><feOffset dx="3" dy="3" result="oBlur"/><feFlood flood-color="#656765" flood-opacity=".5"/><feComposite in2="oBlur" operator="in"/><feMerge><feMergeNode/><feMergeNode in="SourceGraphic"/></feMerge></filter><path vector-effect="non-scaling-stroke" transform="translate(-187.41 -120.57)" d="M187.406 241.043c36.887 0 66.875-30.04 66.875-66.93V67.031c0-36.89-29.988-66.926-66.875-66.926-36.886 0-66.875 30.036-66.875 66.926v107.082c0 36.89 29.989 66.93 66.875 66.93zM147.281 67.031c0-22.14 18.004-40.156 40.125-40.156s40.125 18.016 40.125 40.156v107.082c0 22.14-18.004 40.157-40.125 40.157-22.12 0-40.125-18.016-40.125-40.157zm0 0" fill="#aad6ec" filter="url(#b)"/></g><g transform="matrix(1.21 0 0 1.21 247.53 312.47)" clip-path="url(#c)"><filter id="d" y="-21%" height="142%" x="-21%" width="142%"><feGaussianBlur in="SourceAlpha"/><feOffset dx="3" dy="3" result="oBlur"/><feFlood flood-color="#656765" flood-opacity=".5"/><feComposite in2="oBlur" operator="in"/><feMerge><feMergeNode/><feMergeNode in="SourceGraphic"/></feMerge></filter><clipPath id="c"><path transform="translate(-187.41 -241.04)" d="M67.031 107h240.75v268H67.031zm0 0" stroke-linecap="round"/></clipPath><path vector-effect="non-scaling-stroke" transform="translate(-187.41 -241.04)" d="M294.406 107.188a13.312 13.312 0 00-5.117 1.019 13.27 13.27 0 00-4.34 2.902 13.36 13.36 0 00-3.66 6.852 13.351 13.351 0 00-.258 2.613v53.54c0 51.667-41.996 93.698-93.625 93.698s-93.625-42.03-93.625-93.699v-53.539a13.351 13.351 0 00-1.02-5.125 13.27 13.27 0 00-2.898-4.34 13.27 13.27 0 00-4.34-2.902 13.365 13.365 0 00-17.472 7.242 13.403 13.403 0 00-1.02 5.125v53.54c0 61.843 46.973 112.359 107 119.105v54.906h-40.125a13.312 13.312 0 00-5.117 1.02 13.27 13.27 0 00-4.34 2.902 13.36 13.36 0 00-3.66 6.851 13.351 13.351 0 00.762 7.735 13.39 13.39 0 004.926 6.008c.73.488 1.5.898 2.312 1.234.809.34 1.649.594 2.508.762.863.172 1.73.258 2.61.258h107c.878 0 1.745-.086 2.609-.258a12.79 12.79 0 002.507-.762 13.27 13.27 0 004.34-2.898 13.39 13.39 0 003.66-6.856 13.312 13.312 0 000-5.223 13.403 13.403 0 00-5.687-8.52 13.27 13.27 0 00-2.313-1.233 13.365 13.365 0 00-5.117-1.02h-40.125v-54.906c60.028-6.746 107-57.262 107-119.106v-53.539a13.351 13.351 0 00-1.02-5.125 13.27 13.27 0 00-2.898-4.34 13.27 13.27 0 00-4.34-2.902 13.365 13.365 0 00-5.117-1.02zm0 0" fill="#aad6ec" filter="url(#d)"/></g></svg>
